<svg xmlns="http://www.w3.org/2000/svg" xmlns:xlink="http://www.w3.org/1999/xlink" version="1.1" width="940" height="788" viewBox="0 0 940 788" xml:space="preserve">
<desc>Created with Fabric.js 3.5.0</desc>
<defs>
</defs>
<rect x="0" y="0" width="100%" height="100%" fill="rgba(255,255,255,0.09)"/>
<g transform="matrix(0.4827 0 0 0.4827 273.1867 334.4048)" style="" id="491814">
		
<path xml:space="preserve" font-family="Mrs Saint Delafield" font-size="110" style="stroke: none; stroke-width: 0; stroke-dasharray: none; stroke-linecap: butt; stroke-dashoffset: 0; stroke-linejoin: miter; stroke-miterlimit: 4; is-custom-font: none; font-file-url: none; fill: rgb(0,0,0); fill-rule: nonzero; opacity: 1; white-space: pre;" d="M-184.86-30.78L-184.86-30.78L-209.28-31.99Q-209.50-31.99-210.27-31.33Q-211.03-30.67-211.59-30.67Q-212.14-30.67-212.36-30.78L-212.36-30.78Q-218.84-33.09-218.84-36.39L-218.84-36.39Q-218.84-38.04-216.97-38.04L-216.97-38.04Q-215.88-38.04-202.73-36.34Q-189.59-34.63-174.41-34.63Q-159.23-34.63-145.25-36.28L-145.25-36.28Q-130.41-49.15-115.78-49.15L-115.78-49.15Q-109.73-49.15-109.73-46.29L-109.73-46.29Q-109.73-38.81-143.61-33.86L-143.61-33.86Q-154.83-22.64-170.78 2.77L-170.78 2.77Q-176.72 12.12-182.55 20.81L-182.55 20.81Q-195.42 39.95-203.56 39.95L-203.56 39.95Q-206.53 39.95-206.53 37.36Q-206.53 34.78-204.33 31.37L-204.33 31.37Q-202.24 28.07-201.03 28.07L-201.03 28.07Q-200.92 28.07-200.92 28.07L-200.92 28.07Q-199.49 28.07-199.49 29.72L-199.49 29.72L-199.93 31.81Q-199.93 32.36-199.49 32.36L-199.49 32.36Q-193.66 32.36-179.69 8.60L-179.69 8.60Q-174.08-0.97-165.38-13.18Q-156.69-25.39-148.56-33.20L-148.56-33.20Q-167.59-30.78-184.86-30.78ZM-118.42-47.06L-118.42-47.06Q-128.98-47.06-140.31-36.94L-140.31-36.94Q-132.17-38.15-126.28-39.91Q-120.40-41.67-117.98-43.21Q-115.56-44.75-115.56-45.91Q-115.56-47.06-118.42-47.06Z"/><path xml:space="preserve" font-family="Mrs Saint Delafield" font-size="110" style="stroke: none; stroke-width: 0; stroke-dasharray: none; stroke-linecap: butt; stroke-dashoffset: 0; stroke-linejoin: miter; stroke-miterlimit: 4; is-custom-font: none; font-file-url: none; fill: rgb(0,0,0); fill-rule: nonzero; opacity: 1; white-space: pre;" d="M-130.84 18.17L-128.53 16.30Q-127.76 15.75-127.10 15.75Q-126.44 15.75-126.44 16.52L-126.44 16.52L-126.44 16.74Q-134.69 23.34-142.72 29.11Q-150.75 34.89-154.50 34.89L-154.50 34.89Q-157.25 34.89-157.25 31.92Q-157.25 28.95-154.60 25.98Q-151.97 23.01-149.38 20.81Q-146.79 18.61-146.79 17.89Q-146.79 17.18-147.62 16.24Q-148.44 15.31-149.00 14.98L-149.00 14.98Q-150.86 16.85-157.13 21.80L-157.13 21.80L-157.57 20.15Q-150.64 14.65-149.54 12.78L-149.54 12.78L-149.54 11.79Q-149.54 9.04-149.00 8.05Q-148.44 7.06-146.35 5.30Q-144.26 3.54-143.50 3.54Q-142.72 3.54-142.12 4.09Q-141.51 4.64-141.51 5.19Q-141.51 5.74-141.90 6.45Q-142.28 7.17-142.67 7.66Q-143.06 8.16-143.72 8.87Q-144.38 9.59-144.54 9.86Q-144.70 10.14-144.87 10.80Q-145.03 11.46-145.58 11.90Q-146.13 12.34-146.13 13.00Q-146.13 13.66-145.25 15.91Q-144.38 18.17-144.38 19.21Q-144.38 20.26-148.44 24.16Q-152.51 28.07-152.51 30.49L-152.51 30.49Q-152.51 31.81-151.31 31.81L-151.31 31.81Q-149.76 31.81-145.58 29.06L-145.58 29.06L-144.26 28.18Q-137.11 23.23-130.84 18.17L-130.84 18.17Z"/><path xml:space="preserve" font-family="Mrs Saint Delafield" font-size="110" style="stroke: none; stroke-width: 0; stroke-dasharray: none; stroke-linecap: butt; stroke-dashoffset: 0; stroke-linejoin: miter; stroke-miterlimit: 4; is-custom-font: none; font-file-url: none; fill: rgb(0,0,0); fill-rule: nonzero; opacity: 1; white-space: pre;" d="M-97.51 18.61L-94.76 16.30Q-93.99 15.75-93.33 15.75Q-92.67 15.75-92.67 16.52L-92.67 16.52L-92.67 16.74Q-104.11 26.20-111.70 30.93Q-119.29 35.66-125.45 35.66L-125.45 35.66Q-130.41 35.66-130.41 30.82L-130.41 30.82Q-130.41 23.67-123.14 16.13Q-115.88 8.60-110.93 8.60L-110.93 8.60Q-108.18 8.60-108.18 11.68L-108.18 11.68Q-108.73 17.73-125.56 27.96L-125.56 27.96L-125.56 29.06Q-125.56 32.69-121.77 32.69Q-117.97 32.69-113.57 30.16L-113.57 30.16Q-104.99 25.10-97.51 18.61L-97.51 18.61ZM-113.79 12.01L-113.79 12.01Q-116.21 12.01-120.01 16.08Q-123.80 20.15-125.12 25.32L-125.12 25.32Q-119.84 22.13-116.21 18.55Q-112.58 14.98-112.58 13.49Q-112.58 12.01-113.79 12.01Z"/><path xml:space="preserve" font-family="Mrs Saint Delafield" font-size="110" style="stroke: none; stroke-width: 0; stroke-dasharray: none; stroke-linecap: butt; stroke-dashoffset: 0; stroke-linejoin: miter; stroke-miterlimit: 4; is-custom-font: none; font-file-url: none; fill: rgb(0,0,0); fill-rule: nonzero; opacity: 1; white-space: pre;" d="M-63.63 18.61L-60.88 16.30Q-60.11 15.75-59.45 15.75Q-58.79 15.75-58.79 16.52L-58.79 16.52L-58.79 16.74Q-70.23 26.20-77.82 30.93Q-85.41 35.66-91.57 35.66L-91.57 35.66Q-96.52 35.66-96.52 30.82L-96.52 30.82Q-96.52 23.67-89.26 16.13Q-82.00 8.60-77.05 8.60L-77.05 8.60Q-74.30 8.60-74.30 11.68L-74.30 11.68Q-74.85 17.73-91.68 27.96L-91.68 27.96L-91.68 29.06Q-91.68 32.69-87.89 32.69Q-84.09 32.69-79.69 30.16L-79.69 30.16Q-71.11 25.10-63.63 18.61L-63.63 18.61ZM-79.91 12.01L-79.91 12.01Q-82.33 12.01-86.13 16.08Q-89.92 20.15-91.24 25.32L-91.24 25.32Q-85.96 22.13-82.33 18.55Q-78.70 14.98-78.70 13.49Q-78.70 12.01-79.91 12.01Z"/><path xml:space="preserve" font-family="Mrs Saint Delafield" font-size="110" style="stroke: none; stroke-width: 0; stroke-dasharray: none; stroke-linecap: butt; stroke-dashoffset: 0; stroke-linejoin: miter; stroke-miterlimit: 4; is-custom-font: none; font-file-url: none; fill: rgb(0,0,0); fill-rule: nonzero; opacity: 1; white-space: pre;" d="M-2.91-8.78L-2.91-8.78Q-2.91-8.78 1.92-9.11L1.92-9.11Q9.73-9.11 13.53-6.20Q17.33-3.28 17.33 2.05Q17.33 7.39 12.48 14.54Q7.64 21.69-0.05 27.52L-0.05 27.52L6.22 27.52Q10.06 27.52 11.61 27.19Q13.14 26.86 13.36 26.86L13.36 26.86Q14.91 26.86 14.91 28.51Q14.91 30.16 12.70 30.27L12.70 30.27Q4.23 30.27-3.58 30.05L-3.58 30.05Q-15.89 37.86-27.77 37.86L-27.77 37.86Q-33.38 37.86-36.69 35.77Q-39.98 33.68-39.98 31.53Q-39.98 29.39-38.17 28.18Q-36.36 26.97-33.05 26.97L-33.05 26.97Q-20.18 26.97-4.23 27.52L-4.23 27.52Q2.36 22.13 6.33 15.03Q10.28 7.94 10.28 2.22L10.28 2.22Q10.28-6.91 0.50-6.91L0.50-6.91Q-3.36-6.91-7.48-5.70Q-11.60-4.49-12.43-4.00Q-13.25-3.50-13.48-3.50L-13.48-3.50Q-14.13-3.50-14.13-4.44Q-14.13-5.37-11.27-6.69L-11.27-6.69Q1.27-12.74 13.25-22.81Q25.25-32.87 25.25-37.16L25.25-37.16Q25.25-39.14 22.17-39.14L22.17-39.14Q9.63-39.03-12.27-20.33L-12.27-20.33Q-16.66-9.00-26.73 7.50Q-36.80 24.00-47.80 37.03Q-58.80 50.07-64.19 50.07L-64.19 50.07Q-67.48 50.07-67.48 46.66L-67.48 46.66Q-67.48 38.85-52.69 18.83Q-37.89-1.19-19.20-18.02L-19.20-18.02Q-15.89-26.05-15.89-29.74Q-15.89-33.42-17.66-35.57Q-19.41-37.71-22.82-38.70L-22.82-38.70Q-28.21-40.13-34.21-40.13Q-40.20-40.13-43.39-39.86Q-46.58-39.58-51.15-38.76Q-55.71-37.93-58.58-35.90Q-61.44-33.86-61.44-30.73Q-61.44-27.59-58.35-25.89Q-55.27-24.18-50.82-23.52Q-46.36-22.86-41.97-22.09Q-37.56-21.32-34.48-19.07Q-31.41-16.81-31.41-12.74L-31.41-12.74Q-31.41-11.64-31.90-11.64Q-32.39-11.64-32.67-11.97Q-32.95-12.30-33.60-13.29L-33.60-13.29Q-34.59-14.72-36.52-15.49Q-38.45-16.26-42.46-16.98Q-46.47-17.69-50.05-18.52Q-53.63-19.34-57.25-20.66Q-60.88-21.98-63.09-24.40Q-65.28-26.82-65.28-30.07Q-65.28-33.31-62.53-35.84Q-59.78-38.37-55.27-39.80L-55.27-39.80Q-46.03-42.55-36.02-42.55L-36.02-42.55Q-10.06-42.55-10.06-28.91L-10.06-28.91Q-10.06-27.70-10.62-25.28L-10.62-25.28Q11.61-43.21 25.47-43.21L25.47-43.21Q31.63-43.21 31.63-39.47L31.63-39.47Q31.63-34.08 20.35-24.18Q9.08-14.28-2.91-8.78ZM-61.44 46.88L-61.44 46.88Q-58.24 46.88-44.33 26.47Q-30.41 6.07-22.05-11.53L-22.05-11.53Q-38.55 4.20-51.26 21.19Q-63.96 38.19-63.96 44.35L-63.96 44.35Q-63.96 46.88-61.44 46.88ZM-7.64 29.94L-7.64 29.94L-27.55 29.50Q-36.02 29.50-36.02 32.03L-36.02 32.03Q-36.02 33.46-33.16 34.72Q-30.30 35.99-26.56 35.99L-26.56 35.99Q-16.77 35.99-7.64 29.94Z"/><path xml:space="preserve" font-family="Mrs Saint Delafield" font-size="110" style="stroke: none; stroke-width: 0; stroke-dasharray: none; stroke-linecap: butt; stroke-dashoffset: 0; stroke-linejoin: miter; stroke-miterlimit: 4; is-custom-font: none; font-file-url: none; fill: rgb(0,0,0); fill-rule: nonzero; opacity: 1; white-space: pre;" d="M37.89 33.13L37.89 33.13Q37.89 31.48 39.49 28.84Q41.09 26.20 41.20 25.76Q41.30 25.32 40.98 25.32Q40.64 25.32 40.04 25.92Q39.44 26.53 33.33 30.54Q27.23 34.56 24.91 34.56L24.91 34.56Q23.38 34.56 23.38 32.58Q23.38 30.60 29.54 22.35Q35.70 14.10 38.23 14.10L38.23 14.10Q38.77 14.10 39.27 14.59Q39.77 15.09 39.77 15.36Q39.77 15.64 34.10 22.13Q28.43 28.62 28.43 30.49L28.43 30.49Q28.43 30.93 28.88 30.93L28.88 30.93Q30.96 30.93 37.89 25.32Q44.83 19.71 47.74 16.63Q50.66 13.55 52.30 13.55Q53.95 13.55 53.95 14.98L53.95 14.98Q53.95 15.86 53.30 16.74Q52.64 17.62 50.82 19.87Q49.00 22.13 47.47 24.11L47.47 24.11Q43.17 29.61 43.17 30.98Q43.17 32.36 44.33 32.36Q45.48 32.36 50.00 29.28L50.00 29.28Q58.35 23.78 65.28 18.17L65.28 18.17L67.70 16.19Q68.47 15.64 69.03 15.64Q69.58 15.64 69.58 16.30L69.58 16.30L69.58 16.63Q70.02 16.63 63.69 21.47Q57.37 26.31 50.16 31.15Q42.95 35.99 41.09 35.99L41.09 35.99Q37.89 35.99 37.89 33.13Z"/><path xml:space="preserve" font-family="Mrs Saint Delafield" font-size="110" style="stroke: none; stroke-width: 0; stroke-dasharray: none; stroke-linecap: butt; stroke-dashoffset: 0; stroke-linejoin: miter; stroke-miterlimit: 4; is-custom-font: none; font-file-url: none; fill: rgb(0,0,0); fill-rule: nonzero; opacity: 1; white-space: pre;" d="M80.91 18.83L80.91 18.83L84.42 13.44Q84.09 13.33 83.77 13.33L83.77 13.33Q79.14 13.33 71.66 20.37Q64.19 27.41 64.19 30.27L64.19 30.27Q64.19 31.04 65.06 31.04L65.06 31.04Q67.81 31.04 73.42 26.36Q79.03 21.69 80.91 18.83ZM105.44 16.52L105.44 16.74Q82.56 35.22 77.72 35.22L77.72 35.22Q75.84 35.22 75.84 33.02Q75.84 30.82 77.50 25.65L77.50 25.65Q77.50 25.54 77.28 25.54L77.28 25.54Q64.63 35.99 60.45 35.99L60.45 35.99Q57.59 35.99 57.59 33.90L57.59 33.90Q57.59 29.28 67.54 20.37Q77.50 11.46 83.44 11.46L83.44 11.46Q84.20 11.46 85.09 12.56L85.09 12.56Q87.61 8.82 113.47-28.03L113.47-28.03Q116.22-31.44 117.92-31.44Q119.63-31.44 119.63-30.34L119.63-30.34Q119.63-27.59 100.70-4.38L100.70-4.38Q93.66 4.42 87.78 13.93Q81.89 23.45 81.89 28.40L81.89 28.40Q81.89 30.49 83.11 30.49L83.11 30.49Q84.53 30.49 88.16 27.96L88.16 27.96Q95.64 22.57 101.25 18.06L101.25 18.06L103.34 16.30Q104.12 15.75 104.78 15.75Q105.44 15.75 105.44 16.52L105.44 16.52Z"/><path xml:space="preserve" font-family="Mrs Saint Delafield" font-size="110" style="stroke: none; stroke-width: 0; stroke-dasharray: none; stroke-linecap: butt; stroke-dashoffset: 0; stroke-linejoin: miter; stroke-miterlimit: 4; is-custom-font: none; font-file-url: none; fill: rgb(0,0,0); fill-rule: nonzero; opacity: 1; white-space: pre;" d="M116.77 18.83L116.77 18.83L120.29 13.44Q119.96 13.33 119.63 13.33L119.63 13.33Q115.01 13.33 107.53 20.37Q100.05 27.41 100.05 30.27L100.05 30.27Q100.05 31.04 100.93 31.04L100.93 31.04Q103.68 31.04 109.29 26.36Q114.90 21.69 116.77 18.83ZM141.30 16.52L141.30 16.74Q118.42 35.22 113.58 35.22L113.58 35.22Q111.71 35.22 111.71 33.02Q111.71 30.82 113.36 25.65L113.36 25.65Q113.36 25.54 113.14 25.54L113.14 25.54Q100.48 35.99 96.31 35.99L96.31 35.99Q93.45 35.99 93.45 33.90L93.45 33.90Q93.45 29.28 103.40 20.37Q113.36 11.46 119.30 11.46L119.30 11.46Q120.06 11.46 120.95 12.56L120.95 12.56Q123.48 8.82 149.32-28.03L149.32-28.03Q152.07-31.44 153.78-31.44Q155.49-31.44 155.49-30.34L155.49-30.34Q155.49-27.59 136.56-4.38L136.56-4.38Q129.53 4.42 123.64 13.93Q117.76 23.45 117.76 28.40L117.76 28.40Q117.76 30.49 118.97 30.49L118.97 30.49Q120.40 30.49 124.03 27.96L124.03 27.96Q131.50 22.57 137.12 18.06L137.12 18.06L139.21 16.30Q139.98 15.75 140.63 15.75Q141.30 15.75 141.30 16.52L141.30 16.52Z"/><path xml:space="preserve" font-family="Mrs Saint Delafield" font-size="110" style="stroke: none; stroke-width: 0; stroke-dasharray: none; stroke-linecap: butt; stroke-dashoffset: 0; stroke-linejoin: miter; stroke-miterlimit: 4; is-custom-font: none; font-file-url: none; fill: rgb(0,0,0); fill-rule: nonzero; opacity: 1; white-space: pre;" d="M156.53 1.34Q157.57 1.34 158.18 2.00Q158.78 2.66 158.78 3.87Q158.78 5.08 157.13 6.95Q155.48 8.82 154.27 8.82Q153.06 8.82 152.51 8.10Q151.97 7.39 151.97 6.45Q151.97 5.52 153.72 3.43Q155.48 1.34 156.53 1.34ZM163.19 18.17L165.60 16.19Q166.48 15.64 166.98 15.64Q167.47 15.64 167.47 16.30L167.47 16.30L167.47 16.63Q167.91 16.63 161.59 21.47Q155.26 26.31 148.06 31.15Q140.85 35.99 138.98 35.99L138.98 35.99Q135.79 35.99 135.79 33.35L135.79 33.35Q135.79 30.16 141.29 21.30Q146.79 12.45 149.32 12.45L149.32 12.45Q151.19 12.45 151.19 13.88Q151.19 15.31 146.13 21.69Q141.07 28.07 141.07 30.82L141.07 30.82Q141.07 32.36 142.23 32.36Q143.38 32.36 148.00 29.28L148.00 29.28Q156.25 23.78 163.19 18.17L163.19 18.17Z"/><path xml:space="preserve" font-family="Mrs Saint Delafield" font-size="110" style="stroke: none; stroke-width: 0; stroke-dasharray: none; stroke-linecap: butt; stroke-dashoffset: 0; stroke-linejoin: miter; stroke-miterlimit: 4; is-custom-font: none; font-file-url: none; fill: rgb(0,0,0); fill-rule: nonzero; opacity: 1; white-space: pre;" d="M196.41 18.61L199.16 16.30Q199.93 15.75 200.59 15.75Q201.25 15.75 201.25 16.52L201.25 16.52L201.25 16.74Q189.81 26.20 182.22 30.93Q174.63 35.66 168.47 35.66L168.47 35.66Q163.51 35.66 163.51 30.82L163.51 30.82Q163.51 23.67 170.78 16.13Q178.03 8.60 182.99 8.60L182.99 8.60Q185.74 8.60 185.74 11.68L185.74 11.68Q185.19 17.73 168.35 27.96L168.35 27.96L168.35 29.06Q168.35 32.69 172.15 32.69Q175.94 32.69 180.34 30.16L180.34 30.16Q188.93 25.10 196.41 18.61L196.41 18.61ZM180.13 12.01L180.13 12.01Q177.70 12.01 173.91 16.08Q170.12 20.15 168.79 25.32L168.79 25.32Q174.07 22.13 177.70 18.55Q181.34 14.98 181.34 13.49Q181.34 12.01 180.13 12.01Z"/><path xml:space="preserve" font-family="Mrs Saint Delafield" font-size="110" style="stroke: none; stroke-width: 0; stroke-dasharray: none; stroke-linecap: butt; stroke-dashoffset: 0; stroke-linejoin: miter; stroke-miterlimit: 4; is-custom-font: none; font-file-url: none; fill: rgb(0,0,0); fill-rule: nonzero; opacity: 1; white-space: pre;" d="M223.47 18.72L226.54 16.30Q227.42 15.75 228.03 15.75Q228.63 15.75 228.63 16.52L228.63 16.52L228.63 16.74Q220.16 23.89 210.76 30.16Q201.35 36.43 198.82 36.43Q196.29 36.43 194.59 35.49Q192.88 34.56 192.88 33.35Q192.88 32.14 193.54 31.31Q194.20 30.49 194.75 30.49Q195.31 30.49 196.57 32.19Q197.83 33.90 199.04 33.90L199.04 33.90Q201.57 33.90 203.00 28.51Q204.44 23.12 204.44 21.08Q204.44 19.05 204.16 19.05Q203.88 19.05 203.66 19.27L203.66 19.27L200.47 21.80L200.03 20.15Q206.97 14.65 208.06 12.78L208.06 12.78Q208.72 11.02 209.94 11.02L209.94 11.02Q210.70 11.02 210.70 11.57Q210.70 12.12 209.94 13.93Q209.16 15.75 207.90 22.13Q206.63 28.51 206.63 29.50Q206.63 30.49 207.19 30.49L207.19 30.49Q214.88 25.76 223.47 18.72L223.47 18.72Z"/></g>
<g transform="matrix(1 0 0 1 543 448)" style="" id="518340">
		
</g>
</svg>